<?xml version='1.0' encoding='UTF-8'?>
<svg width="66mm" height="66mm" version="1.1" viewBox="0 0 66 66" xmlns="http://www.w3.org/2000/svg"><path d="M4,4H6V6H4zM6,4H8V6H6zM8,4H10V6H8zM10,4H12V6H10zM12,4H14V6H12zM14,4H16V6H14zM16,4H18V6H16zM20,4H22V6H20zM22,4H24V6H22zM24,4H26V6H24zM30,4H32V6H30zM32,4H34V6H32zM34,4H36V6H34zM40,4H42V6H40zM42,4H44V6H42zM44,4H46V6H44zM48,4H50V6H48zM50,4H52V6H50zM52,4H54V6H52zM54,4H56V6H54zM56,4H58V6H56zM58,4H60V6H58zM60,4H62V6H60zM4,6H6V8H4zM16,6H18V8H16zM20,6H22V8H20zM24,6H26V8H24zM26,6H28V8H26zM28,6H30V8H28zM30,6H32V8H30zM36,6H38V8H36zM38,6H40V8H38zM48,6H50V8H48zM60,6H62V8H60zM4,8H6V10H4zM8,8H10V10H8zM10,8H12V10H10zM12,8H14V10H12zM16,8H18V10H16zM26,8H28V10H26zM36,8H38V10H36zM40,8H42V10H40zM42,8H44V10H42zM44,8H46V10H44zM48,8H50V10H48zM52,8H54V10H52zM54,8H56V10H54zM56,8H58V10H56zM60,8H62V10H60zM4,10H6V12H4zM8,10H10V12H8zM10,10H12V12H10zM12,10H14V12H12zM16,10H18V12H16zM20,10H22V12H20zM22,10H24V12H22zM26,10H28V12H26zM28,10H30V12H28zM32,10H34V12H32zM34,10H36V12H34zM38,10H40V12H38zM42,10H44V12H42zM48,10H50V12H48zM52,10H54V12H52zM54,10H56V12H54zM56,10H58V12H56zM60,10H62V12H60zM4,12H6V14H4zM8,12H10V14H8zM10,12H12V14H10zM12,12H14V14H12zM16,12H18V14H16zM22,12H24V14H22zM24,12H26V14H24zM28,12H30V14H28zM32,12H34V14H32zM36,12H38V14H36zM38,12H40V14H38zM40,12H42V14H40zM42,12H44V14H42zM48,12H50V14H48zM52,12H54V14H52zM54,12H56V14H54zM56,12H58V14H56zM60,12H62V14H60zM4,14H6V16H4zM16,14H18V16H16zM22,14H24V16H22zM26,14H28V16H26zM30,14H32V16H30zM34,14H36V16H34zM36,14H38V16H36zM38,14H40V16H38zM42,14H44V16H42zM44,14H46V16H44zM48,14H50V16H48zM60,14H62V16H60zM4,16H6V18H4zM6,16H8V18H6zM8,16H10V18H8zM10,16H12V18H10zM12,16H14V18H12zM14,16H16V18H14zM16,16H18V18H16zM20,16H22V18H20zM24,16H26V18H24zM28,16H30V18H28zM32,16H34V18H32zM36,16H38V18H36zM40,16H42V18H40zM44,16H46V18H44zM48,16H50V18H48zM50,16H52V18H50zM52,16H54V18H52zM54,16H56V18H54zM56,16H58V18H56zM58,16H60V18H58zM60,16H62V18H60zM20,18H22V20H20zM28,18H30V20H28zM34,18H36V20H34zM36,18H38V20H36zM38,18H40V20H38zM40,18H42V20H40zM44,18H46V20H44zM4,20H6V22H4zM8,20H10V22H8zM10,20H12V22H10zM14,20H16V22H14zM16,20H18V22H16zM18,20H20V22H18zM26,20H28V22H26zM30,20H32V22H30zM34,20H36V22H34zM38,20H40V22H38zM40,20H42V22H40zM48,20H50V22H48zM54,20H56V22H54zM58,20H60V22H58zM60,20H62V22H60zM6,22H8V24H6zM10,22H12V24H10zM14,22H16V24H14zM18,22H20V24H18zM20,22H22V24H20zM22,22H24V24H22zM30,22H32V24H30zM32,22H34V24H32zM34,22H36V24H34zM42,22H44V24H42zM44,22H46V24H44zM46,22H48V24H46zM48,22H50V24H48zM50,22H52V24H50zM52,22H54V24H52zM60,22H62V24H60zM4,24H6V26H4zM6,24H8V26H6zM8,24H10V26H8zM10,24H12V26H10zM12,24H14V26H12zM16,24H18V26H16zM24,24H26V26H24zM30,24H32V26H30zM36,24H38V26H36zM38,24H40V26H38zM40,24H42V26H40zM44,24H46V26H44zM46,24H48V26H46zM48,24H50V26H48zM56,24H58V26H56zM58,24H60V26H58zM4,26H6V28H4zM8,26H10V28H8zM14,26H16V28H14zM22,26H24V28H22zM24,26H26V28H24zM26,26H28V28H26zM28,26H30V28H28zM36,26H38V28H36zM48,26H50V28H48zM50,26H52V28H50zM60,26H62V28H60zM8,28H10V30H8zM10,28H12V30H10zM12,28H14V30H12zM16,28H18V30H16zM22,28H24V30H22zM24,28H26V30H24zM28,28H30V30H28zM32,28H34V30H32zM34,28H36V30H34zM38,28H40V30H38zM44,28H46V30H44zM50,28H52V30H50zM54,28H56V30H54zM56,28H58V30H56zM4,30H6V32H4zM6,30H8V32H6zM10,30H12V32H10zM14,30H16V32H14zM20,30H22V32H20zM26,30H28V32H26zM28,30H30V32H28zM32,30H34V32H32zM36,30H38V32H36zM38,30H40V32H38zM42,30H44V32H42zM48,30H50V32H48zM56,30H58V32H56zM58,30H60V32H58zM60,30H62V32H60zM8,32H10V34H8zM10,32H12V34H10zM14,32H16V34H14zM16,32H18V34H16zM22,32H24V34H22zM30,32H32V34H30zM34,32H36V34H34zM36,32H38V34H36zM40,32H42V34H40zM42,32H44V34H42zM48,32H50V34H48zM50,32H52V34H50zM56,32H58V34H56zM58,32H60V34H58zM60,32H62V34H60zM4,34H6V36H4zM8,34H10V36H8zM10,34H12V36H10zM12,34H14V36H12zM18,34H20V36H18zM20,34H22V36H20zM26,34H28V36H26zM28,34H30V36H28zM32,34H34V36H32zM36,34H38V36H36zM50,34H52V36H50zM58,34H60V36H58zM8,36H10V38H8zM10,36H12V38H10zM16,36H18V38H16zM22,36H24V38H22zM32,36H34V38H32zM34,36H36V38H34zM40,36H42V38H40zM46,36H48V38H46zM50,36H52V38H50zM52,36H54V38H52zM54,36H56V38H54zM58,36H60V38H58zM8,38H10V40H8zM12,38H14V40H12zM14,38H16V40H14zM24,38H26V40H24zM26,38H28V40H26zM32,38H34V40H32zM36,38H38V40H36zM38,38H40V40H38zM44,38H46V40H44zM46,38H48V40H46zM50,38H52V40H50zM54,38H56V40H54zM56,38H58V40H56zM58,38H60V40H58zM4,40H6V42H4zM8,40H10V42H8zM12,40H14V42H12zM16,40H18V42H16zM18,40H20V42H18zM26,40H28V42H26zM28,40H30V42H28zM30,40H32V42H30zM32,40H34V42H32zM34,40H36V42H34zM36,40H38V42H36zM50,40H52V42H50zM52,40H54V42H52zM56,40H58V42H56zM8,42H10V44H8zM10,42H12V44H10zM12,42H14V44H12zM30,42H32V44H30zM32,42H34V44H32zM34,42H36V44H34zM36,42H38V44H36zM38,42H40V44H38zM40,42H42V44H40zM42,42H44V44H42zM50,42H52V44H50zM52,42H54V44H52zM56,42H58V44H56zM6,44H8V46H6zM10,44H12V46H10zM16,44H18V46H16zM26,44H28V46H26zM28,44H30V46H28zM30,44H32V46H30zM32,44H34V46H32zM34,44H36V46H34zM36,44H38V46H36zM38,44H40V46H38zM44,44H46V46H44zM46,44H48V46H46zM48,44H50V46H48zM50,44H52V46H50zM52,44H54V46H52zM54,44H56V46H54zM56,44H58V46H56zM20,46H22V48H20zM22,46H24V48H22zM24,46H26V48H24zM38,46H40V48H38zM40,46H42V48H40zM44,46H46V48H44zM52,46H54V48H52zM54,46H56V48H54zM56,46H58V48H56zM58,46H60V48H58zM60,46H62V48H60zM4,48H6V50H4zM6,48H8V50H6zM8,48H10V50H8zM10,48H12V50H10zM12,48H14V50H12zM14,48H16V50H14zM16,48H18V50H16zM20,48H22V50H20zM22,48H24V50H22zM24,48H26V50H24zM28,48H30V50H28zM32,48H34V50H32zM36,48H38V50H36zM40,48H42V50H40zM42,48H44V50H42zM44,48H46V50H44zM48,48H50V50H48zM52,48H54V50H52zM54,48H56V50H54zM58,48H60V50H58zM4,50H6V52H4zM16,50H18V52H16zM20,50H22V52H20zM22,50H24V52H22zM24,50H26V52H24zM26,50H28V52H26zM28,50H30V52H28zM30,50H32V52H30zM32,50H34V52H32zM42,50H44V52H42zM44,50H46V52H44zM52,50H54V52H52zM54,50H56V52H54zM60,50H62V52H60zM4,52H6V54H4zM8,52H10V54H8zM10,52H12V54H10zM12,52H14V54H12zM16,52H18V54H16zM22,52H24V54H22zM26,52H28V54H26zM38,52H40V54H38zM44,52H46V54H44zM46,52H48V54H46zM48,52H50V54H48zM50,52H52V54H50zM52,52H54V54H52zM56,52H58V54H56zM58,52H60V54H58zM4,54H6V56H4zM8,54H10V56H8zM10,54H12V56H10zM12,54H14V56H12zM16,54H18V56H16zM20,54H22V56H20zM22,54H24V56H22zM24,54H26V56H24zM26,54H28V56H26zM30,54H32V56H30zM34,54H36V56H34zM36,54H38V56H36zM38,54H40V56H38zM46,54H48V56H46zM50,54H52V56H50zM52,54H54V56H52zM54,54H56V56H54zM60,54H62V56H60zM4,56H6V58H4zM8,56H10V58H8zM10,56H12V58H10zM12,56H14V58H12zM16,56H18V58H16zM20,56H22V58H20zM22,56H24V58H22zM24,56H26V58H24zM26,56H28V58H26zM28,56H30V58H28zM32,56H34V58H32zM38,56H40V58H38zM42,56H44V58H42zM50,56H52V58H50zM56,56H58V58H56zM60,56H62V58H60zM4,58H6V60H4zM16,58H18V60H16zM22,58H24V60H22zM26,58H28V60H26zM28,58H30V60H28zM30,58H32V60H30zM32,58H34V60H32zM36,58H38V60H36zM42,58H44V60H42zM44,58H46V60H44zM48,58H50V60H48zM50,58H52V60H50zM54,58H56V60H54zM58,58H60V60H58zM4,60H6V62H4zM6,60H8V62H6zM8,60H10V62H8zM10,60H12V62H10zM12,60H14V62H12zM14,60H16V62H14zM16,60H18V62H16zM20,60H22V62H20zM30,60H32V62H30zM32,60H34V62H32zM34,60H36V62H34zM40,60H42V62H40zM42,60H44V62H42zM44,60H46V62H44zM46,60H48V62H46zM48,60H50V62H48zM50,60H52V62H50zM54,60H56V62H54zM58,60H60V62H58z" id="qr-path" fill="#000000" fill-opacity="1" fill-rule="nonzero" stroke="none"/></svg>